<svg width="160" height="140" viewBox="0 0 160 140" fill="none" xmlns="http://www.w3.org/2000/svg">
  <ellipse cx="80" cy="124" rx="34" ry="9" fill="#5E3E24" fill-opacity="0.12"/>
  <path d="M53 66C53 44.4609 70.4609 27 92 27C110.778 27 126 42.2223 126 61V79C126 100.539 108.539 118 87 118H83C66.4315 118 53 104.569 53 88V66Z" fill="#8E5A35"/>
  <ellipse cx="74" cy="40" rx="11" ry="12" fill="#8E5A35"/>
  <ellipse cx="103" cy="40" rx="11" ry="12" fill="#8E5A35"/>
  <ellipse cx="74" cy="40" rx="6" ry="7" fill="#A76D44"/>
  <ellipse cx="103" cy="40" rx="6" ry="7" fill="#A76D44"/>
  <ellipse cx="88" cy="74" rx="30" ry="28" fill="#F4D9B8"/>
  <ellipse cx="88" cy="73" rx="39" ry="41" fill="#9F673D"/>
  <ellipse cx="88" cy="80" rx="31" ry="27" fill="#F6DEBF"/>
  <ellipse cx="75" cy="72" rx="10" ry="12" fill="#3B2519"/>
  <ellipse cx="101" cy="72" rx="10" ry="12" fill="#3B2519"/>
  <ellipse cx="77" cy="69" rx="3" ry="4" fill="white"/>
  <ellipse cx="103" cy="69" rx="3" ry="4" fill="white"/>
  <ellipse cx="65" cy="84" rx="6" ry="4" fill="#F59B98"/>
  <ellipse cx="111" cy="84" rx="6" ry="4" fill="#F59B98"/>
  <path d="M88 78L95 83V87H81V83L88 78Z" fill="#5A3824"/>
  <path d="M81 94C84 98 92 98 95 94" stroke="#72472C" stroke-width="4" stroke-linecap="round"/>
  <path d="M62 103C57 111 59 118 66 122" stroke="#75492C" stroke-width="9" stroke-linecap="round"/>
  <path d="M114 102C119 110 117 118 110 122" stroke="#75492C" stroke-width="9" stroke-linecap="round"/>
  <path d="M74 111V128" stroke="#75492C" stroke-width="9" stroke-linecap="round"/>
  <path d="M100 111V128" stroke="#75492C" stroke-width="9" stroke-linecap="round"/>
  <path d="M61 92H115L107 112H69L61 92Z" fill="#3E8A63"/>
  <path d="M57 88H119L111 98H65L57 88Z" fill="#C94E40"/>
  <rect x="73" y="100" width="28" height="8" rx="4" fill="#D79C45"/>
  <circle cx="87" cy="104" r="7" fill="#B57A2F"/>
  <path d="M48 104L34 113L42 122L55 113" fill="#F0BF62"/>
  <path d="M120 104L134 111L129 123L116 117" fill="#7898BE"/>
</svg>
